#!OML:ASF F:\VICON\USERDATA\INSTALL\rory3\rory3.ASF
:FULLY-SPECIFIED
:DEGREES
2263
root 0.195754 16.4103 -2.61729 33.4021 -3.86934 -2.98531
lowerback 22.331 1.93562 -2.7492
upperback 3.6477 1.9379 0.989436
thorax -8.59232 1.00356 2.09287
lowerneck -4.58112 -9.60819 -17.6967
upperneck -15.6155 -10.2038 31.7929
head -0.4909 -5.59147 13.218
rclavicle 1.69091e-014 -2.19657e-014
rhumerus 23.9989 13.5273 -87.6675
rradius 93.9852
rwrist 31.1571
rhand 21.0001 1.03549
rfingers 7.12502
rthumb 45.4656 -22.2783
lclavicle 1.69091e-014 -2.19657e-014
lhumerus 31.1128 -11.5407 76.2017
lradius 94.322
lwrist -17.1131
lhand 15.4748 36.9615
lfingers 7.12502
lthumb 40.2984 62.0968
rfemur -62.6883 4.5158 17.5891
rtibia 41.5093
rfoot -14.8035 -1.73598
rtoes -21.907
lfemur -64.2331 -5.94423 -7.05923
ltibia 47.4691
lfoot -15.4257 8.87478
ltoes -21.7269
2264
root 0.192702 16.4757 -2.59938 33.5542 -3.51975 -2.71047
lowerback 22.2064 1.72446 -2.7918
upperback 3.55266 1.66745 1.05752
thorax -8.6182 0.88091 2.27248
lowerneck -4.35316 -9.50325 -17.9783
upperneck -15.6516 -10.0781 31.7249
head -0.562401 -5.52802 13.2789
rclavicle 1.83876e-015 4.47266e-016
rhumerus 23.3118 13.9524 -87.5265
rradius 93.9633
rwrist 30.8138
rhand 21.3549 1.29439
rfingers 7.12502
rthumb 45.7951 -21.885
lclavicle 1.83876e-015 4.47266e-016
lhumerus 29.455 -11.6968 77.0851
lradius 94.2193
lwrist -17.2657
lhand 15.5884 37.0642
lfingers 7.12502
lthumb 40.4052 62.1667
rfemur -62.1397 4.52831 17.1632
rtibia 40.4491
rfoot -14.4173 -2.25335
rtoes -22.1579
lfemur -63.6864 -6.44158 -7.03118
ltibia 46.0555
lfoot -14.861 8.94313
ltoes -21.9708
2265
root 0.189761 16.536 -2.58256 33.7535 -3.01325 -2.44638
lowerback 21.8195 1.51045 -2.55917
upperback 3.69141 1.45497 1.03833
thorax -8.24 0.768274 2.18531
lowerneck -4.6199 -9.5343 -18.0991
upperneck -15.6977 -10.076 31.7609
head -0.516031 -5.5048 13.304
rclavicle -1.85864e-014 1.06847e-015
rhumerus 23.1039 14.0663 -87.2756
rradius 93.9867
rwrist 30.4003
rhand 21.6199 1.28318
rfingers 7.12502
rthumb 46.041 -21.7943
lclavicle -1.85864e-014 1.06847e-015
lhumerus 28.4603 -12.1038 77.8387
lradius 94.0375
lwrist -17.4028
lhand 15.6774 37.2249
lfingers 7.12502
lthumb 40.4889 62.3016
rfemur -61.6723 4.46124 16.8006
rtibia 39.4305
rfoot -14.1111 -2.78497
rtoes -22.3033
lfemur -63.2353 -7.00576 -6.89894
ltibia 44.629
lfoot -14.3232 9.00012
ltoes -22.1483
2266
root 0.185169 16.5915 -2.5668 33.9484 -2.53059 -1.99265
lowerback 21.4706 1.33175 -2.43995
upperback 3.81946 1.25023 0.912121
thorax -7.89645 0.661988 2.04123
lowerneck -4.89682 -9.60968 -18.1317
upperneck -15.7368 -10.1343 31.8451
head -0.450947 -5.51738 13.3213
rclavicle 6.64686e-015 -1.93815e-015
rhumerus 23.0833 13.9605 -87.0337
rradius 93.9762
rwrist 30.0314
rhand 21.8577 1.2149
rfingers 7.12502
rthumb 46.2615 -21.7699
lclavicle 6.64686e-015 -1.93815e-015
lhumerus 27.669 -12.6415 78.5434
lradius 93.7578
lwrist -17.6995
lhand 16.0828 37.2877
lfingers 7.12502
lthumb 40.8699 62.2453
rfemur -61.2486 4.38682 16.1689
rtibia 38.5131
rfoot -13.7626 -3.38338
rtoes -22.6283
lfemur -62.8031 -7.60966 -6.98674
ltibia 43.2123
lfoot -13.8958 9.11148
ltoes -22.2504
2267
root 0.179116 16.6388 -2.55258 34.1228 -2.03761 -1.62025
lowerback 21.1923 1.17759 -2.33131
upperback 3.9693 1.07873 0.854286
thorax -7.57216 0.572727 1.96639
lowerneck -5.23093 -9.71307 -18.1292
upperneck -15.8437 -10.2172 31.8521
head -0.398529 -5.53988 13.2978
rclavicle 3.9788e-015 -2.13694e-015
rhumerus 23.2312 13.7789 -86.8144
rradius 94.0113
rwrist 30.005
rhand 22.0278 1.28188
rfingers 7.12502
rthumb 46.4192 -21.636
lclavicle 3.9788e-015 -2.13694e-015
lhumerus 27.0175 -13.2084 78.9988
lradius 93.4073
lwrist -17.7866
lhand 16.3182 37.3797
lfingers 7.12502
lthumb 41.091 62.2671
rfemur -60.8513 4.4149 15.5673
rtibia 37.7406
rfoot -13.3964 -4.05832
rtoes -22.578
lfemur -62.3688 -8.06472 -7.07103
ltibia 41.8446
lfoot -13.401 8.83411
ltoes -20.6862
2268
root 0.171533 16.6803 -2.54099 34.3154 -1.52704 -1.19702
lowerback 20.9692 1.04794 -2.1628
upperback 4.04469 0.942593 0.710088
thorax -7.35944 0.500503 1.75215
lowerneck -5.34971 -9.81717 -18.0073
upperneck -15.9784 -10.3244 31.8655
head -0.393032 -5.59777 13.2631
rclavicle -7.83957e-015 3.15571e-015
rhumerus 23.2554 13.4208 -86.5662
rradius 94.034
rwrist 30.0179
rhand 21.9269 1.46785
rfingers 7.12502
rthumb 46.3257 -21.4898
lclavicle -7.83957e-015 3.15571e-015
lhumerus 26.3767 -13.9597 79.4402
lradius 93.1338
lwrist -17.8265
lhand 16.6867 37.266
lfingers 7.12502
lthumb 41.4369 62.0419
rfemur -60.5467 4.41634 14.9126
rtibia 37.1453
rfoot -13.0861 -4.77267
rtoes -22.613
lfemur -62.0071 -8.51406 -7.20615
ltibia 40.5403
lfoot -12.7942 8.43986
ltoes -19.0611
2269
root 0.162955 16.7165 -2.53247 34.4373 -0.925237 -0.760583
lowerback 21.0089 0.897317 -1.90084
upperback 3.93947 0.790099 0.530172
thorax -7.48235 0.423325 1.44766
lowerneck -5.02489 -9.831 -17.8944
upperneck -16.0591 -10.3669 31.8957
head -0.465713 -5.65228 13.2689
rclavicle -1.00883e-014 -1.68967e-015
rhumerus 22.9243 13.0568 -86.2612
rradius 94.0833
rwrist 29.904
rhand 21.6442 1.55771
rfingers 7.12502
rthumb 46.0635 -21.5103
lclavicle -1.00883e-014 -1.68967e-015
lhumerus 25.5406 -14.8824 79.9587
lradius 92.9634
lwrist -17.8944
lhand 17.1526 37.1918
lfingers 7.12502
lthumb 41.8739 61.8239
rfemur -60.2085 4.42698 14.2396
rtibia 36.7057
rfoot -12.7616 -5.6145
rtoes -23.1309
lfemur -61.6494 -8.97385 -7.36939
ltibia 39.3508
lfoot -12.271 8.28507
ltoes -20.0274
2270
root 0.152097 16.7451 -2.52705 34.5317 -0.240792 -0.39298
lowerback 21.0834 0.711002 -1.64365
upperback 3.84886 0.597345 0.433353
thorax -7.6097 0.327302 1.24704
lowerneck -4.67746 -9.80286 -17.8021
upperneck -16.1896 -10.3447 31.8706
head -0.577602 -5.67479 13.2709
rclavicle 7.95139e-016 -1.19271e-015
rhumerus 22.7749 12.7521 -85.9187
rradius 94.2191
rwrist 29.8604
rhand 21.2841 1.55191
rfingers 7.12502
rthumb 45.7294 -21.6545
lclavicle 7.95139e-016 -1.19271e-015
lhumerus 24.9045 -15.7195 80.2812
lradius 92.775
lwrist -17.8472
lhand 17.3518 37.2028
lfingers 7.12502
lthumb 42.0605 61.7725
rfemur -59.9376 4.42153 13.6934
rtibia 36.4247
rfoot -12.448 -6.40994
rtoes -22.7498
lfemur -61.3544 -9.36404 -7.47401
ltibia 38.2982
lfoot -11.9018 8.04129
ltoes -20.7645
2271
root 0.140194 16.766 -2.52189 34.6788 0.317555 -0.0301058
lowerback 20.9955 0.580433 -1.54855
upperback 3.84991 0.448794 0.387965
thorax -7.5557 0.254306 1.1838
lowerneck -4.47454 -9.83035 -17.7962
upperneck -16.4327 -10.3641 31.8363
head -0.679008 -5.70827 13.2778
rclavicle 1.09332e-015 2.38542e-015
rhumerus 23.0481 12.3444 -85.5775
rradius 94.3851
rwrist 29.9833
rhand 20.9503 1.53047
rfingers 7.12502
rthumb 45.4193 -21.802
lclavicle 1.09332e-015 2.38542e-015
lhumerus 24.6449 -16.4089 80.5059
lradius 92.5733
lwrist -17.6775
lhand 17.3764 37.1609
lfingers 7.12502
lthumb 42.0837 61.7229
rfemur -59.8525 4.37497 13.2115
rtibia 36.2851
rfoot -12.2132 -7.08621
rtoes -22.2503
lfemur -61.1691 -9.6187 -7.66838
ltibia 37.4146
lfoot -11.5562 7.71524
ltoes -20.9917
2272
root 0.130023 16.7799 -2.51828 34.7786 0.870487 0.31931
lowerback 20.9628 0.44512 -1.38625
upperback 3.84536 0.305531 0.319484
thorax -7.53749 0.182285 1.05536
lowerneck -4.32286 -9.84384 -17.8308
upperneck -16.5674 -10.3755 31.8224
head -0.738861 -5.72708 13.2934
rclavicle -3.57812e-015 -5.11871e-015
rhumerus 23.4533 11.7595 -85.4168
rradius 94.595
rwrist 30.2014
rhand 20.812 1.6864
rfingers 7.12502
rthumb 45.2907 -21.6977
lclavicle -3.57812e-015 -5.11871e-015
lhumerus 24.5259 -17.0585 80.6163
lradius 92.471
lwrist -17.4069
lhand 17.6212 37.0319
lfingers 7.12502
lthumb 42.3129 61.5162
rfemur -59.7898 4.25432 12.8132
rtibia 36.283
rfoot -12.0493 -7.686
rtoes -22.1507
lfemur -61.0262 -9.80598 -7.95319
ltibia 36.7184
lfoot -11.3011 7.37483
ltoes -21.4509
2273
root 0.120738 16.7877 -2.51758 34.8294 1.54601 0.597682
lowerback 20.954 0.240072 -1.09287
upperback 3.8678 0.104822 0.301666
thorax -7.50221 0.0802474 0.922241
lowerneck -4.43326 -9.85239 -17.9069
upperneck -16.4765 -10.3902 31.7814
head -0.689771 -5.71451 13.2785
rclavicle 4.07509e-015 -2.48481e-015
rhumerus 23.9949 11.2902 -85.1694
rradius 94.7426
rwrist 30.3433
rhand 20.6717 1.83673
rfingers 7.12502
rthumb 45.1603 -21.5994
lclavicle 4.07509e-015 -2.48481e-015
lhumerus 24.5003 -17.5094 80.7239
lradius 92.593
lwrist -17.1164
lhand 17.9915 36.9517
lfingers 7.12502
lthumb 42.6596 61.3168
rfemur -59.7306 4.0687 12.5701
rtibia 36.4124
rfoot -11.9785 -8.30561
rtoes -22.0913
lfemur -60.966 -9.99586 -8.16381
ltibia 36.2029
lfoot -11.026 7.01134
ltoes -22.5308
